<svg xmlns="http://www.w3.org/2000/svg" viewBox="0 0 1200 800">
  <defs>
    <linearGradient id="sky" x1="0" y1="0" x2="1" y2="1"><stop stop-color="#102d3c"/><stop offset=".45" stop-color="#246b67"/><stop offset="1" stop-color="#ffb779"/></linearGradient>
    <radialGradient id="glow"><stop stop-color="#d7ffd9" stop-opacity=".8"/><stop offset="1" stop-color="#8ef4bb" stop-opacity="0"/></radialGradient>
  </defs>
  <rect width="1200" height="800" fill="url(#sky)"/>
  <ellipse cx="740" cy="250" rx="470" ry="210" fill="url(#glow)" transform="rotate(-12 740 250)"/>
  <path d="M0 475C180 390 270 430 405 360s274-42 390 38c114 79 215 50 405-10v412H0Z" fill="#183835" opacity=".7"/>
  <path d="M0 570c220-115 371-30 542-92 193-69 324-31 658 72v250H0Z" fill="#0e2526"/>
  <g fill="#ffc98c"><circle cx="122" cy="140" r="3"/><circle cx="219" cy="207" r="2"/><circle cx="1020" cy="173" r="3"/><circle cx="905" cy="93" r="2"/></g>
  <path d="M620 390c55-136 97-227 181-319-52 142-66 226-54 346Z" fill="#caffd3" opacity=".24"/>
</svg>
