<svg xmlns="http://www.w3.org/2000/svg" viewBox="0 0 900 1200">
  <defs><linearGradient id="bg" x1="0" y1="0" x2="1" y2="1"><stop stop-color="#d9e1c4"/><stop offset="1" stop-color="#6c8b68"/></linearGradient></defs>
  <rect width="900" height="1200" fill="url(#bg)"/>
  <path d="M444 1200c-70-263-55-490 32-701 60-144 115-265 121-499" fill="none" stroke="#e8d8bd" stroke-width="74" opacity=".82"/>
  <g fill="#254b3b"><ellipse cx="166" cy="240" rx="153" ry="262" transform="rotate(-29 166 240)"/><ellipse cx="766" cy="318" rx="143" ry="242" transform="rotate(22 766 318)"/><ellipse cx="193" cy="770" rx="192" ry="282" transform="rotate(-18 193 770)"/><ellipse cx="743" cy="871" rx="174" ry="270" transform="rotate(20 743 871)"/></g>
  <g fill="#759b64"><circle cx="300" cy="212" r="79"/><circle cx="713" cy="596" r="93"/><circle cx="142" cy="1041" r="108"/></g>
  <g fill="#e7a577"><circle cx="276" cy="474" r="17"/><circle cx="680" cy="708" r="20"/><circle cx="238" cy="940" r="14"/><circle cx="763" cy="1042" r="18"/></g>
</svg>
