<svg xmlns="http://www.w3.org/2000/svg" viewBox="0 0 1200 900">
  <rect width="1200" height="900" fill="#f3eadb"/>
  <path d="M-70 252C160 88 291 166 490 305c203 143 385 88 781-129v286c-350 182-568 230-804 77C234 389 96 438-70 559Z" fill="#d87855"/>
  <path d="M-88 380c238-122 403-50 562 93 202 182 432 184 797-5v282c-405 184-653 154-870-41C236 560 96 570-88 689Z" fill="#234f4b"/>
  <path d="M-83 613c241-130 403-48 572 85 184 145 380 168 786 3v255H-83Z" fill="#e2bb83"/>
  <circle cx="936" cy="198" r="76" fill="#f3d29a"/>
</svg>
